<svg version="1.1" xmlns="http://www.w3.org/2000/svg" xmlns:xlink="http://www.w3.org/1999/xlink" width="907" height="693"><defs/><g><g transform="translate(-160,-206) scale(1,1)"><path fill="#C0C0C0" stroke="none" d="M 479 368.5 C 479 363.2532944 483.2532944 359 488.5 359 C 493.7467056 359 498 363.2532944 498 368.5 C 498 373.7467056 493.7467056 378 488.5 378 C 483.2532944 378 479 373.7467056 479 368.5 Z" opacity="0.2"/></g><g transform="translate(-160,-206) scale(1,1)"><path fill="#000000" stroke="none" d="M 472 361.5 C 472 356.2532944 476.2532944 352 481.5 352 C 486.7467056 352 491 356.2532944 491 361.5 C 491 366.7467056 486.7467056 371 481.5 371 C 476.2532944 371 472 366.7467056 472 361.5 Z"/></g><g transform="translate(-160,-206) scale(1,1)"><path fill="#C0C0C0" stroke="none" d="M 479 424.5 L 490.5 415 L 501 424.5 L 490.5 433 L 479 424.5" opacity="0.2"/></g><g transform="translate(-160,-206) scale(1,1)"><path fill="#ffffff" stroke="none" d="M 472 417 L 483 408 L 494 417 L 483 426 L 472 417"/></g><g transform="translate(-160,-206) scale(1,1)"><path fill="none" stroke="#000000" d="M 472 417 L 483 408 L 494 417 L 483 426 L 472 417 L 472 417" stroke-miterlimit="10"/></g><g transform="translate(-160,-206) scale(1,1)"><path fill="none" stroke="#000000" d="M 481 372 L 483 407" stroke-miterlimit="10"/></g><g transform="translate(-160,-206) scale(1,1)"><path fill="none" stroke="#000000" d="M 478.21755966870643 397.09402884732566 L 483 407 L 486.6228833874166 396.6137246348279" stroke-miterlimit="10"/></g><g transform="translate(-160,-206) scale(1,1)"><g><path fill="none" stroke="none"/><text fill="#000000" stroke="none" font-family="Arial" font-size="13px" font-style="normal" font-weight="normal" text-decoration="none" x="488" y="395">register</text></g></g><g transform="translate(-160,-206) scale(1,1)"><path fill="#ffffff" stroke="none" d="M 440 216 L 502.919921875 216 L 512.919921875 226 L 512.919921875 343 L 440 343 L 440 216"/></g><g transform="translate(-160,-206) scale(1,1)"><path fill="none" stroke="#000000" d="M 440 216 L 502.919921875 216 L 512.919921875 226 L 512.919921875 343 L 440 343 L 440 216 L 440 216" stroke-miterlimit="10"/></g><g transform="translate(-160,-206) scale(1,1)"><path fill="none" stroke="#000000" d="M 502.919921875 216 L 502.919921875 226 L 512.919921875 226 L 502.919921875 216" stroke-miterlimit="10"/></g><g transform="translate(-160,-206) scale(1,1)"><g><path fill="none" stroke="none"/><text fill="#000000" stroke="none" font-family="Arial" font-size="13px" font-style="normal" font-weight="normal" text-decoration="none" x="445" y="234">The user</text><text fill="#000000" stroke="none" font-family="Arial" font-size="13px" font-style="normal" font-weight="normal" text-decoration="none" x="445" y="247">is</text><text fill="#000000" stroke="none" font-family="Arial" font-size="13px" font-style="normal" font-weight="normal" text-decoration="none" x="445" y="260">prompted</text><text fill="#000000" stroke="none" font-family="Arial" font-size="13px" font-style="normal" font-weight="normal" text-decoration="none" x="445" y="273">to register</text><text fill="#000000" stroke="none" font-family="Arial" font-size="13px" font-style="normal" font-weight="normal" text-decoration="none" x="445" y="286">as a</text><text fill="#000000" stroke="none" font-family="Arial" font-size="13px" font-style="normal" font-weight="normal" text-decoration="none" x="445" y="299">learner or</text><text fill="#000000" stroke="none" font-family="Arial" font-size="13px" font-style="normal" font-weight="normal" text-decoration="none" x="445" y="312">a mentor</text></g></g><g transform="translate(-160,-206) scale(1,1)"><path fill="#C0C0C0" stroke="none" d="M 265 391 L 372.46630859375 391 Q 382.46630859375 391 382.46630859375 401 L 382.46630859375 421 Q 382.46630859375 431 372.46630859375 431 L 265 431 Q 255 431 255 421 L 255 401 Q 255 391 265 391 Z" opacity="0.2"/></g><g transform="translate(-160,-206) scale(1,1)"><path fill="#ffffff" stroke="none" d="M 258 384 L 365.46630859375 384 Q 375.46630859375 384 375.46630859375 394 L 375.46630859375 414 Q 375.46630859375 424 365.46630859375 424 L 258 424 Q 248 424 248 414 L 248 394 Q 248 384 258 384 Z"/></g><g transform="translate(-160,-206) scale(1,1)"><path fill="none" stroke="#000000" d="M 258 384 L 365.46630859375 384 Q 375.46630859375 384 375.46630859375 394 L 375.46630859375 414 Q 375.46630859375 424 365.46630859375 424 L 258 424 Q 248 424 248 414 L 248 394 Q 248 384 258 384 Z" stroke-miterlimit="10"/></g><g transform="translate(-160,-206) scale(1,1)"><g><path fill="none" stroke="none"/><text fill="#000000" stroke="none" font-family="Arial" font-size="13px" font-style="normal" font-weight="bold" text-decoration="none" x="257.5400390625" y="403.5">learner information</text></g></g><g transform="translate(-160,-206) scale(1,1)"><path fill="none" stroke="#000000" d="M 471 416 L 376 409" stroke-miterlimit="10"/></g><g transform="translate(-160,-206) scale(1,1)"><path fill="none" stroke="#000000" d="M 386.44453464716395 405.54866750309515 L 376 409 L 385.8258618880384 413.94494066265656" stroke-miterlimit="10"/></g><g transform="translate(-160,-206) scale(1,1)"><g><path fill="none" stroke="none"/><text fill="#000000" stroke="none" font-family="Arial" font-size="13px" font-style="normal" font-weight="normal" text-decoration="none" x="408" y="432">user input</text></g></g><g transform="translate(-160,-206) scale(1,1)"><path fill="#C0C0C0" stroke="none" d="M 633 391 L 741.16455078125 391 Q 751.16455078125 391 751.16455078125 401 L 751.16455078125 421 Q 751.16455078125 431 741.16455078125 431 L 633 431 Q 623 431 623 421 L 623 401 Q 623 391 633 391 Z" opacity="0.2"/></g><g transform="translate(-160,-206) scale(1,1)"><path fill="#ffffff" stroke="none" d="M 626 384 L 734.16455078125 384 Q 744.16455078125 384 744.16455078125 394 L 744.16455078125 414 Q 744.16455078125 424 734.16455078125 424 L 626 424 Q 616 424 616 414 L 616 394 Q 616 384 626 384 Z"/></g><g transform="translate(-160,-206) scale(1,1)"><path fill="none" stroke="#000000" d="M 626 384 L 734.16455078125 384 Q 744.16455078125 384 744.16455078125 394 L 744.16455078125 414 Q 744.16455078125 424 734.16455078125 424 L 626 424 Q 616 424 616 414 L 616 394 Q 616 384 626 384 Z" stroke-miterlimit="10"/></g><g transform="translate(-160,-206) scale(1,1)"><g><path fill="none" stroke="none"/><text fill="#000000" stroke="none" font-family="Arial" font-size="13px" font-style="normal" font-weight="bold" text-decoration="none" x="625.892333984375" y="403.5">mentor information</text></g></g><g transform="translate(-160,-206) scale(1,1)"><path fill="none" stroke="#000000" d="M 495 416 L 615 408" stroke-miterlimit="10"/></g><g transform="translate(-160,-206) scale(1,1)"><path fill="none" stroke="#000000" d="M 605.1398468188526 412.8762054144906 L 615 408 L 604.5798209070276 404.4758167371174" stroke-miterlimit="10"/></g><g transform="translate(-160,-206) scale(1,1)"><g><path fill="none" stroke="none"/><text fill="#000000" stroke="none" font-family="Arial" font-size="13px" font-style="normal" font-weight="normal" text-decoration="none" x="526" y="429">user input</text></g></g><g transform="translate(-160,-206) scale(1,1)"><path fill="#C0C0C0" stroke="none" d="M 289 471 L 352.41357421875 471 Q 362.41357421875 471 362.41357421875 481 L 362.41357421875 501 Q 362.41357421875 511 352.41357421875 511 L 289 511 Q 279 511 279 501 L 279 481 Q 279 471 289 471 Z" opacity="0.2"/></g><g transform="translate(-160,-206) scale(1,1)"><path fill="#ffffff" stroke="none" d="M 282 464 L 345.41357421875 464 Q 355.41357421875 464 355.41357421875 474 L 355.41357421875 494 Q 355.41357421875 504 345.41357421875 504 L 282 504 Q 272 504 272 494 L 272 474 Q 272 464 282 464 Z"/></g><g transform="translate(-160,-206) scale(1,1)"><path fill="none" stroke="#000000" d="M 282 464 L 345.41357421875 464 Q 355.41357421875 464 355.41357421875 474 L 355.41357421875 494 Q 355.41357421875 504 345.41357421875 504 L 282 504 Q 272 504 272 494 L 272 474 Q 272 464 282 464 Z" stroke-miterlimit="10"/></g><g transform="translate(-160,-206) scale(1,1)"><g><path fill="none" stroke="none"/><text fill="#000000" stroke="none" font-family="Arial" font-size="13px" font-style="normal" font-weight="bold" text-decoration="none" x="280.114990234375" y="483.5">start or pick</text></g></g><g transform="translate(-160,-206) scale(1,1)"><path fill="none" stroke="#000000" d="M 312 425 L 312 463" stroke-miterlimit="10"/></g><g transform="translate(-160,-206) scale(1,1)"><path fill="none" stroke="#000000" d="M 307.790482243984 452.83732514237585 L 312 463 L 316.209517756016 452.83732514237585" stroke-miterlimit="10"/></g><g transform="translate(-160,-206) scale(1,1)"><g><path fill="none" stroke="none"/><text fill="#000000" stroke="none" font-family="Arial" font-size="13px" font-style="normal" font-weight="normal" text-decoration="none" x="228" y="450">start or continue a learning activity</text></g></g><g transform="translate(-160,-206) scale(1,1)"><path fill="#C0C0C0" stroke="none" d="M 665 471 L 704 471 Q 714 471 714 481 L 714 501 Q 714 511 704 511 L 665 511 Q 655 511 655 501 L 655 481 Q 655 471 665 471 Z" opacity="0.2"/></g><g transform="translate(-160,-206) scale(1,1)"><path fill="#ffffff" stroke="none" d="M 658 464 L 697 464 Q 707 464 707 474 L 707 494 Q 707 504 697 504 L 658 504 Q 648 504 648 494 L 648 474 Q 648 464 658 464 Z"/></g><g transform="translate(-160,-206) scale(1,1)"><path fill="none" stroke="#000000" d="M 658 464 L 697 464 Q 707 464 707 474 L 707 494 Q 707 504 697 504 L 658 504 Q 648 504 648 494 L 648 474 Q 648 464 658 464 Z" stroke-miterlimit="10"/></g><g transform="translate(-160,-206) scale(1,1)"><g><path fill="none" stroke="none"/><text fill="#000000" stroke="none" font-family="Arial" font-size="13px" font-style="normal" font-weight="bold" text-decoration="none" x="656.54638671875" y="483.5">browse</text></g></g><g transform="translate(-160,-206) scale(1,1)"><path fill="none" stroke="#000000" d="M 679 425 L 678 463" stroke-miterlimit="10"/></g><g transform="translate(-160,-206) scale(1,1)"><path fill="none" stroke="#000000" d="M 674.0592853332588 452.7301038021151 L 678 463 L 682.4754071800323 452.9515806928197" stroke-miterlimit="10"/></g><g transform="translate(-160,-206) scale(1,1)"><g><path fill="none" stroke="none"/><text fill="#000000" stroke="none" font-family="Arial" font-size="13px" font-style="normal" font-weight="normal" text-decoration="none" x="643" y="450">pick your interest</text></g></g><g transform="translate(-160,-206) scale(1,1)"><path fill="#C0C0C0" stroke="none" d="M 321 535 L 408.9599609375 535 Q 418.9599609375 535 418.9599609375 545 L 418.9599609375 565 Q 418.9599609375 575 408.9599609375 575 L 321 575 Q 311 575 311 565 L 311 545 Q 311 535 321 535 Z" opacity="0.2"/></g><g transform="translate(-160,-206) scale(1,1)"><path fill="#ffffff" stroke="none" d="M 314 528 L 401.9599609375 528 Q 411.9599609375 528 411.9599609375 538 L 411.9599609375 558 Q 411.9599609375 568 401.9599609375 568 L 314 568 Q 304 568 304 558 L 304 538 Q 304 528 314 528 Z"/></g><g transform="translate(-160,-206) scale(1,1)"><path fill="none" stroke="#000000" d="M 314 528 L 401.9599609375 528 Q 411.9599609375 528 411.9599609375 538 L 411.9599609375 558 Q 411.9599609375 568 401.9599609375 568 L 314 568 Q 304 568 304 558 L 304 538 Q 304 528 314 528 Z" stroke-miterlimit="10"/></g><g transform="translate(-160,-206) scale(1,1)"><g><path fill="none" stroke="none"/><text fill="#000000" stroke="none" font-family="Arial" font-size="13px" font-style="normal" font-weight="bold" text-decoration="none" x="312.083251953125" y="547.5">pose a question</text></g></g><g transform="translate(-160,-206) scale(1,1)"><path fill="#C0C0C0" stroke="none" d="M 201 647 L 255.0126953125 647 Q 265.0126953125 647 265.0126953125 657 L 265.0126953125 677 Q 265.0126953125 687 255.0126953125 687 L 201 687 Q 191 687 191 677 L 191 657 Q 191 647 201 647 Z" opacity="0.2"/></g><g transform="translate(-160,-206) scale(1,1)"><path fill="#ffffff" stroke="none" d="M 194 640 L 248.0126953125 640 Q 258.0126953125 640 258.0126953125 650 L 258.0126953125 670 Q 258.0126953125 680 248.0126953125 680 L 194 680 Q 184 680 184 670 L 184 650 Q 184 640 194 640 Z"/></g><g transform="translate(-160,-206) scale(1,1)"><path fill="none" stroke="#000000" d="M 194 640 L 248.0126953125 640 Q 258.0126953125 640 258.0126953125 650 L 258.0126953125 670 Q 258.0126953125 680 248.0126953125 680 L 194 680 Q 184 680 184 670 L 184 650 Q 184 640 194 640 Z" stroke-miterlimit="10"/></g><g transform="translate(-160,-206) scale(1,1)"><g><path fill="none" stroke="none"/><text fill="#000000" stroke="none" font-family="Arial" font-size="13px" font-style="normal" font-weight="bold" text-decoration="none" x="191.023193359375" y="659.5">homework</text></g></g><g transform="translate(-160,-206) scale(1,1)"><path fill="#C0C0C0" stroke="none" d="M 417 663 L 475.33544921875 663 Q 485.33544921875 663 485.33544921875 673 L 485.33544921875 693 Q 485.33544921875 703 475.33544921875 703 L 417 703 Q 407 703 407 693 L 407 673 Q 407 663 417 663 Z" opacity="0.2"/></g><g transform="translate(-160,-206) scale(1,1)"><path fill="#ffffff" stroke="none" d="M 410 656 L 468.33544921875 656 Q 478.33544921875 656 478.33544921875 666 L 478.33544921875 686 Q 478.33544921875 696 468.33544921875 696 L 410 696 Q 400 696 400 686 L 400 666 Q 400 656 410 656 Z"/></g><g transform="translate(-160,-206) scale(1,1)"><path fill="none" stroke="#000000" d="M 410 656 L 468.33544921875 656 Q 478.33544921875 656 478.33544921875 666 L 478.33544921875 686 Q 478.33544921875 696 468.33544921875 696 L 410 696 Q 400 696 400 686 L 400 666 Q 400 656 410 656 Z" stroke-miterlimit="10"/></g><g transform="translate(-160,-206) scale(1,1)"><g><path fill="none" stroke="none"/><text fill="#000000" stroke="none" font-family="Arial" font-size="13px" font-style="normal" font-weight="bold" text-decoration="none" x="407.727783203125" y="675.5">suggestion</text></g></g><g transform="translate(-160,-206) scale(1,1)"><path fill="none" stroke="#000000" d="M 651 505 L 465 655" stroke-miterlimit="10"/></g><g transform="translate(-160,-206) scale(1,1)"><path fill="none" stroke="#000000" d="M 470.2682235354568 645.3436124362959 L 465 655 L 475.55329371478865 651.8970994586674" stroke-miterlimit="10"/></g><g transform="translate(-160,-206) scale(1,1)"><g><path fill="none" stroke="none"/><text fill="#000000" stroke="none" font-family="Arial" font-size="13px" font-style="normal" font-weight="normal" text-decoration="none" x="535" y="598">mentorship</text></g></g><g transform="translate(-160,-206) scale(1,1)"><path fill="none" stroke="#000000" d="M 413 537 L 647 490" stroke-miterlimit="10"/></g><g transform="translate(-160,-206) scale(1,1)"><path fill="none" stroke="#000000" d="M 637.8652643045892 496.12834429311766 L 647 490 L 636.2073726383188 487.8741602525376" stroke-miterlimit="10"/></g><g transform="translate(-160,-206) scale(1,1)"><g><path fill="none" stroke="none"/><text fill="#000000" stroke="none" font-family="Arial" font-size="13px" font-style="normal" font-weight="normal" text-decoration="none" x="498" y="505">browsable</text></g></g><g transform="translate(-160,-206) scale(1,1)"><path fill="none" stroke="#000000" d="M 332 569 L 247 639" stroke-miterlimit="10"/></g><g transform="translate(-160,-206) scale(1,1)"><path fill="none" stroke="#000000" d="M 252.16885502879833 629.2900598513036 L 247 639 L 257.52089696589223 635.7889679177748" stroke-miterlimit="10"/></g><g transform="translate(-160,-206) scale(1,1)"><g><path fill="none" stroke="none"/><text fill="#000000" stroke="none" font-family="Arial" font-size="13px" font-style="normal" font-weight="normal" text-decoration="none" x="291" y="610">self study</text></g></g><g transform="translate(-160,-206) scale(1,1)"><path fill="none" stroke="#000000" d="M 370 569 L 426 655" stroke-miterlimit="10"/></g><g transform="translate(-160,-206) scale(1,1)"><path fill="none" stroke="#000000" d="M 416.92693316306924 648.7807188379535 L 426 655 L 423.9820687972363 644.1866770296587" stroke-miterlimit="10"/></g><g transform="translate(-160,-206) scale(1,1)"><g><path fill="none" stroke="none"/><text fill="#000000" stroke="none" font-family="Arial" font-size="13px" font-style="normal" font-weight="normal" text-decoration="none" x="410" y="616">get direction</text></g></g><g transform="translate(-160,-206) scale(1,1)"><path fill="none" stroke="#000000" d="M 327 505 L 343 527" stroke-miterlimit="10"/></g><g transform="translate(-160,-206) scale(1,1)"><path fill="none" stroke="#000000" d="M 333.6182133692666 521.2569973345478 L 343 527 L 340.4269911828768 516.3051589246494" stroke-miterlimit="10"/></g><g transform="translate(-160,-206) scale(1,1)"><g><path fill="none" stroke="none"/><text fill="#000000" stroke="none" font-family="Arial" font-size="13px" font-style="normal" font-weight="normal" text-decoration="none" x="214" y="524">whats your struggle</text></g></g><g transform="translate(-160,-206) scale(1,1)"><path fill="none" stroke="#000000" d="M 247 639 L 332 569" stroke-miterlimit="10"/></g><g transform="translate(-160,-206) scale(1,1)"><path fill="none" stroke="#000000" d="M 326.83114497120164 578.7099401486964 L 332 569 L 321.47910303410777 572.2110320822252" stroke-miterlimit="10"/></g><g transform="translate(-160,-206) scale(1,1)"><g><path fill="none" stroke="none"/><text fill="#000000" stroke="none" font-family="Arial" font-size="13px" font-style="normal" font-weight="normal" text-decoration="none" x="170" y="600">improve the question</text></g></g><g transform="translate(-160,-206) scale(1,1)"><path fill="none" stroke="#000000" d="M 399 673 L 259 663" stroke-miterlimit="10"/></g><g transform="translate(-160,-206) scale(1,1)"><path fill="none" stroke="#000000" d="M 269.4367641722761 659.525240495762 L 259 663 L 268.83693272830044 667.9228807114221" stroke-miterlimit="10"/></g><g transform="translate(-160,-206) scale(1,1)"><g><path fill="none" stroke="none"/><text fill="#000000" stroke="none" font-family="Arial" font-size="13px" font-style="normal" font-weight="normal" text-decoration="none" x="295" y="689">incorporate</text></g></g><g transform="translate(-160,-206) scale(1,1)"><path fill="none" stroke="#000000" d="M 259 663 L 399 673" stroke-miterlimit="10"/></g><g transform="translate(-160,-206) scale(1,1)"><path fill="none" stroke="#000000" d="M 388.5632358277239 676.4747595042381 L 399 673 L 389.16306727169956 668.0771192885779" stroke-miterlimit="10"/></g><g transform="translate(-160,-206) scale(1,1)"><g><path fill="none" stroke="none"/><text fill="#000000" stroke="none" font-family="Arial" font-size="13px" font-style="normal" font-weight="normal" text-decoration="none" x="304" y="660">feedback</text></g></g><g transform="translate(-160,-206) scale(1,1)"><path fill="#C0C0C0" stroke="none" d="M 441 807 L 523.20263671875 807 Q 533.20263671875 807 533.20263671875 817 L 533.20263671875 837 Q 533.20263671875 847 523.20263671875 847 L 441 847 Q 431 847 431 837 L 431 817 Q 431 807 441 807 Z" opacity="0.2"/></g><g transform="translate(-160,-206) scale(1,1)"><path fill="#ffffff" stroke="none" d="M 434 800 L 516.20263671875 800 Q 526.20263671875 800 526.20263671875 810 L 526.20263671875 830 Q 526.20263671875 840 516.20263671875 840 L 434 840 Q 424 840 424 830 L 424 810 Q 424 800 434 800 Z"/></g><g transform="translate(-160,-206) scale(1,1)"><path fill="none" stroke="#000000" d="M 434 800 L 516.20263671875 800 Q 526.20263671875 800 526.20263671875 810 L 526.20263671875 830 Q 526.20263671875 840 516.20263671875 840 L 434 840 Q 424 840 424 830 L 424 810 Q 424 800 434 800 Z" stroke-miterlimit="10"/></g><g transform="translate(-160,-206) scale(1,1)"><g><path fill="none" stroke="none"/><text fill="#000000" stroke="none" font-family="Arial" font-size="13px" font-style="normal" font-weight="bold" text-decoration="none" x="431.746826171875" y="819.5">Learnt material</text></g></g><g transform="translate(-160,-206) scale(1,1)"><path fill="none" stroke="#000000" d="M 254 681 L 442 799" stroke-miterlimit="10"/></g><g transform="translate(-160,-206) scale(1,1)"><path fill="none" stroke="#000000" d="M 431.15451879134895 797.1627364498262 L 442 799 L 435.63022820728634 790.0319451769768" stroke-miterlimit="10"/></g><g transform="translate(-160,-206) scale(1,1)"><g><path fill="none" stroke="none"/><text fill="#000000" stroke="none" font-family="Arial" font-size="13px" font-style="normal" font-weight="normal" text-decoration="none" x="272" y="740">consolidate</text></g></g><g transform="translate(-160,-206) scale(1,1)"><path fill="#C0C0C0" stroke="none" d="M 471 883.5 C 471 876.59644 476.59644 871 483.5 871 C 490.40356 871 496 876.59644 496 883.5 C 496 890.40356 490.40356 896 483.5 896 C 476.59644 896 471 890.40356 471 883.5 Z" opacity="0.2"/></g><g transform="translate(-160,-206) scale(1,1)"><path fill="none" stroke="#000000" d="M 464 876.5 C 464 869.59644 469.59644 864 476.5 864 C 483.40356 864 489 869.59644 489 876.5 C 489 883.40356 483.40356 889 476.5 889 C 469.59644 889 464 883.40356 464 876.5 Z" stroke-miterlimit="10"/></g><g transform="translate(-160,-206) scale(1,1)"><path fill="#000000" stroke="none" d="M 469 876.5 C 469 872.357864 472.357864 869 476.5 869 C 480.642136 869 484 872.357864 484 876.5 C 484 880.642136 480.642136 884 476.5 884 C 472.357864 884 469 880.642136 469 876.5 Z"/></g><g transform="translate(-160,-206) scale(1,1)"><path fill="none" stroke="#000000" d="M 475 841 L 476 863" stroke-miterlimit="10"/></g><g transform="translate(-160,-206) scale(1,1)"><path fill="none" stroke="#000000" d="M 471.33336089832187 853.0389518877435 L 476 863 L 479.74371251375516 852.656663177951" stroke-miterlimit="10"/></g><g transform="translate(-160,-206) scale(1,1)"><g><path fill="none" stroke="none"/><text fill="#000000" stroke="none" font-family="Arial" font-size="13px" font-style="normal" font-weight="normal" text-decoration="none" x="486" y="861">problem solved</text></g></g><g transform="translate(-160,-206) scale(1,1)"><path fill="#C0C0C0" stroke="none" d="M 593 703 L 720.72802734375 703 Q 730.72802734375 703 730.72802734375 713 L 730.72802734375 733 Q 730.72802734375 743 720.72802734375 743 L 593 743 Q 583 743 583 733 L 583 713 Q 583 703 593 703 Z" opacity="0.2"/></g><g transform="translate(-160,-206) scale(1,1)"><path fill="#ffffff" stroke="none" d="M 586 696 L 713.72802734375 696 Q 723.72802734375 696 723.72802734375 706 L 723.72802734375 726 Q 723.72802734375 736 713.72802734375 736 L 586 736 Q 576 736 576 726 L 576 706 Q 576 696 586 696 Z"/></g><g transform="translate(-160,-206) scale(1,1)"><path fill="none" stroke="#000000" d="M 586 696 L 713.72802734375 696 Q 723.72802734375 696 723.72802734375 706 L 723.72802734375 726 Q 723.72802734375 736 713.72802734375 736 L 586 736 Q 576 736 576 726 L 576 706 Q 576 696 586 696 Z" stroke-miterlimit="10"/></g><g transform="translate(-160,-206) scale(1,1)"><g><path fill="none" stroke="none"/><text fill="#000000" stroke="none" font-family="Arial" font-size="13px" font-style="normal" font-weight="bold" text-decoration="none" x="585.562255859375" y="715.5">Display learnt material</text></g></g><g transform="translate(-160,-206) scale(1,1)"><path fill="#C0C0C0" stroke="none" d="M 713 599 L 824.8017578125 599 Q 834.8017578125 599 834.8017578125 609 L 834.8017578125 629 Q 834.8017578125 639 824.8017578125 639 L 713 639 Q 703 639 703 629 L 703 609 Q 703 599 713 599 Z" opacity="0.2"/></g><g transform="translate(-160,-206) scale(1,1)"><path fill="#ffffff" stroke="none" d="M 706 592 L 817.8017578125 592 Q 827.8017578125 592 827.8017578125 602 L 827.8017578125 622 Q 827.8017578125 632 817.8017578125 632 L 706 632 Q 696 632 696 622 L 696 602 Q 696 592 706 592 Z"/></g><g transform="translate(-160,-206) scale(1,1)"><path fill="none" stroke="#000000" d="M 706 592 L 817.8017578125 592 Q 827.8017578125 592 827.8017578125 602 L 827.8017578125 622 Q 827.8017578125 632 817.8017578125 632 L 706 632 Q 696 632 696 622 L 696 602 Q 696 592 706 592 Z" stroke-miterlimit="10"/></g><g transform="translate(-160,-206) scale(1,1)"><g><path fill="none" stroke="none"/><text fill="#000000" stroke="none" font-family="Arial" font-size="13px" font-style="normal" font-weight="bold" text-decoration="none" x="705.17822265625" y="611.5">Fibonacci organizer</text></g></g><g transform="translate(-160,-206) scale(1,1)"><path fill="none" stroke="#000000" d="M 674 505 L 652 695" stroke-miterlimit="10"/></g><g transform="translate(-160,-206) scale(1,1)"><path fill="none" stroke="#000000" d="M 648.9873414364401 684.4205913029409 L 652 695 L 657.3505003309415 685.3889570696726" stroke-miterlimit="10"/></g><g transform="translate(-160,-206) scale(1,1)"><g><path fill="none" stroke="none"/><text fill="#000000" stroke="none" font-family="Arial" font-size="13px" font-style="normal" font-weight="normal" text-decoration="none" x="566" y="644">browse content</text></g></g><g transform="translate(-160,-206) scale(1,1)"><path fill="none" stroke="#000000" d="M 510 799 L 614 737" stroke-miterlimit="10"/></g><g transform="translate(-160,-206) scale(1,1)"><path fill="none" stroke="#000000" d="M 607.4263459642864 745.8196979890894 L 614 737 L 603.1152563980702 738.588192910275" stroke-miterlimit="10"/></g><g transform="translate(-160,-206) scale(1,1)"><g><path fill="none" stroke="none"/><text fill="#000000" stroke="none" font-family="Arial" font-size="13px" font-style="normal" font-weight="normal" text-decoration="none" x="525" y="762">categorize</text></g></g><g transform="translate(-160,-206) scale(1,1)"><path fill="none" stroke="#000000" d="M 492 371 L 738 591" stroke-miterlimit="10"/></g><g transform="translate(-160,-206) scale(1,1)"><path fill="none" stroke="#000000" d="M 727.6186052716145 587.3631547333646 L 738 591 L 733.2308833395484 581.0876074392202" stroke-miterlimit="10"/></g><g transform="translate(-160,-206) scale(1,1)"><g><path fill="none" stroke="none"/><text fill="#000000" stroke="none" font-family="Arial" font-size="13px" font-style="normal" font-weight="normal" text-decoration="none" x="543" y="476">initialize</text></g></g><g transform="translate(-160,-206) scale(1,1)"><path fill="#C0C0C0" stroke="none" d="M 777 759 L 902.5 759 Q 912.5 759 912.5 769 L 912.5 789 Q 912.5 799 902.5 799 L 777 799 Q 767 799 767 789 L 767 769 Q 767 759 777 759 Z" opacity="0.2"/></g><g transform="translate(-160,-206) scale(1,1)"><path fill="#ffffff" stroke="none" d="M 770 752 L 895.5 752 Q 905.5 752 905.5 762 L 905.5 782 Q 905.5 792 895.5 792 L 770 792 Q 760 792 760 782 L 760 762 Q 760 752 770 752 Z"/></g><g transform="translate(-160,-206) scale(1,1)"><path fill="none" stroke="#000000" d="M 770 752 L 895.5 752 Q 905.5 752 905.5 762 L 905.5 782 Q 905.5 792 895.5 792 L 770 792 Q 760 792 760 782 L 760 762 Q 760 752 770 752 Z" stroke-miterlimit="10"/></g><g transform="translate(-160,-206) scale(1,1)"><g><path fill="none" stroke="none"/><text fill="#000000" stroke="none" font-family="Arial" font-size="13px" font-style="normal" font-weight="bold" text-decoration="none" x="769.511474609375" y="771.5">Add to Knowledge set</text></g></g><g transform="translate(-160,-206) scale(1,1)"><path fill="none" stroke="#000000" d="M 718 737 L 763 751" stroke-miterlimit="10"/></g><g transform="translate(-160,-206) scale(1,1)"><path fill="none" stroke="#000000" d="M 752.0455941185104 752.0004957688992 L 763 751 L 754.5466079745918 743.961522660066" stroke-miterlimit="10"/></g><g transform="translate(-160,-206) scale(1,1)"><g><path fill="none" stroke="none"/><text fill="#000000" stroke="none" font-family="Arial" font-size="13px" font-style="normal" font-weight="normal" text-decoration="none" x="725" y="736">update</text></g></g><g transform="translate(-160,-206) scale(1,1)"><path fill="#C0C0C0" stroke="none" d="M 823 851.5 C 823 844.59644 828.59644 839 835.5 839 C 842.40356 839 848 844.59644 848 851.5 C 848 858.40356 842.40356 864 835.5 864 C 828.59644 864 823 858.40356 823 851.5 Z" opacity="0.2"/></g><g transform="translate(-160,-206) scale(1,1)"><path fill="#ffffff" stroke="none" d="M 816 844.5 C 816 837.59644 821.59644 832 828.5 832 C 835.40356 832 841 837.59644 841 844.5 C 841 851.40356 835.40356 857 828.5 857 C 821.59644 857 816 851.40356 816 844.5 Z"/></g><g transform="translate(-160,-206) scale(1,1)"><path fill="none" stroke="#000000" d="M 816 844.5 C 816 837.59644 821.59644 832 828.5 832 C 835.40356 832 841 837.59644 841 844.5 C 841 851.40356 835.40356 857 828.5 857 C 821.59644 857 816 851.40356 816 844.5 Z" stroke-miterlimit="10"/></g><g transform="translate(-160,-206) scale(1,1)"><path fill="none" stroke="#000000" d="M 819 835 L 837 853" stroke-miterlimit="10"/></g><g transform="translate(-160,-206) scale(1,1)"><path fill="none" stroke="#000000" d="M 837 835 L 819 853" stroke-miterlimit="10"/></g><g transform="translate(-160,-206) scale(1,1)"><path fill="none" stroke="#000000" d="M 831 793 L 829 831" stroke-miterlimit="10"/></g><g transform="translate(-160,-206) scale(1,1)"><path fill="none" stroke="#000000" d="M 825.3304388478734 820.6301243522015 L 829 831 L 833.7378378159722 821.0726190347331" stroke-miterlimit="10"/></g><g transform="translate(-160,-206) scale(1,1)"><g><path fill="none" stroke="none"/><text fill="#000000" stroke="none" font-family="Arial" font-size="13px" font-style="normal" font-weight="normal" text-decoration="none" x="848" y="815">knowledge set updated</text></g></g><g transform="translate(-160,-206) scale(1,1)"><path fill="none" stroke="#000000" d="M 823 751 L 770 633" stroke-miterlimit="10"/></g><g transform="translate(-160,-206) scale(1,1)"><path fill="none" stroke="#000000" d="M 778.0038350062297 640.5457686946428 L 770 633 L 770.3239017951562 643.9952302216504" stroke-miterlimit="10"/></g><g transform="translate(-160,-206) scale(1,1)"><g><path fill="none" stroke="none"/><text fill="#000000" stroke="none" font-family="Arial" font-size="13px" font-style="normal" font-weight="normal" text-decoration="none" x="807" y="692">Visual organization</text></g></g><g transform="translate(-160,-206) scale(1,1)"><path fill="#C0C0C0" stroke="none" d="M 929 607 L 977.2236328125 607 Q 987.2236328125 607 987.2236328125 617 L 987.2236328125 637 Q 987.2236328125 647 977.2236328125 647 L 929 647 Q 919 647 919 637 L 919 617 Q 919 607 929 607 Z" opacity="0.2"/></g><g transform="translate(-160,-206) scale(1,1)"><path fill="#ffffff" stroke="none" d="M 922 600 L 970.2236328125 600 Q 980.2236328125 600 980.2236328125 610 L 980.2236328125 630 Q 980.2236328125 640 970.2236328125 640 L 922 640 Q 912 640 912 630 L 912 610 Q 912 600 922 600 Z"/></g><g transform="translate(-160,-206) scale(1,1)"><path fill="none" stroke="#000000" d="M 922 600 L 970.2236328125 600 Q 980.2236328125 600 980.2236328125 610 L 980.2236328125 630 Q 980.2236328125 640 970.2236328125 640 L 922 640 Q 912 640 912 630 L 912 610 Q 912 600 922 600 Z" stroke-miterlimit="10"/></g><g transform="translate(-160,-206) scale(1,1)"><g><path fill="none" stroke="none"/><text fill="#000000" stroke="none" font-family="Arial" font-size="13px" font-style="normal" font-weight="bold" text-decoration="none" x="917.925048828125" y="619.5">update UI</text></g></g><g transform="translate(-160,-206) scale(1,1)"><path fill="none" stroke="#000000" d="M 829 615 L 911 618" stroke-miterlimit="10"/></g><g transform="translate(-160,-206) scale(1,1)"><path fill="none" stroke="#000000" d="M 900.6902158542413 621.8351467856994 L 911 618 L 900.9980234189505 613.4217400169783" stroke-miterlimit="10"/></g><g transform="translate(-160,-206) scale(1,1)"><g><path fill="none" stroke="none"/><text fill="#000000" stroke="none" font-family="Arial" font-size="13px" font-style="normal" font-weight="normal" text-decoration="none" x="846" y="608">visualize</text></g></g><g transform="translate(-160,-206) scale(1,1)"><path fill="#C0C0C0" stroke="none" d="M 1039 635.5 C 1039 628.59644 1044.59644 623 1051.5 623 C 1058.40356 623 1064 628.59644 1064 635.5 C 1064 642.40356 1058.40356 648 1051.5 648 C 1044.59644 648 1039 642.40356 1039 635.5 Z" opacity="0.2"/></g><g transform="translate(-160,-206) scale(1,1)"><path fill="#ffffff" stroke="none" d="M 1032 628.5 C 1032 621.59644 1037.59644 616 1044.5 616 C 1051.40356 616 1057 621.59644 1057 628.5 C 1057 635.40356 1051.40356 641 1044.5 641 C 1037.59644 641 1032 635.40356 1032 628.5 Z"/></g><g transform="translate(-160,-206) scale(1,1)"><path fill="none" stroke="#000000" d="M 1032 628.5 C 1032 621.59644 1037.59644 616 1044.5 616 C 1051.40356 616 1057 621.59644 1057 628.5 C 1057 635.40356 1051.40356 641 1044.5 641 C 1037.59644 641 1032 635.40356 1032 628.5 Z" stroke-miterlimit="10"/></g><g transform="translate(-160,-206) scale(1,1)"><path fill="none" stroke="#000000" d="M 1035 619 L 1053 637" stroke-miterlimit="10"/></g><g transform="translate(-160,-206) scale(1,1)"><path fill="none" stroke="#000000" d="M 1053 619 L 1035 637" stroke-miterlimit="10"/></g><g transform="translate(-160,-206) scale(1,1)"><path fill="none" stroke="#000000" d="M 981 623 L 1031 627" stroke-miterlimit="10"/></g><g transform="translate(-160,-206) scale(1,1)"><path fill="none" stroke="#000000" d="M 1020.5340015019681 630.3856868489559 L 1031 627 L 1021.2053793602826 621.9934636200242" stroke-miterlimit="10"/></g></g></svg>