<svg version="1.1" xmlns="http://www.w3.org/2000/svg" xmlns:xlink="http://www.w3.org/1999/xlink" width="425.5654296875" height="364"><defs/><g><g transform="translate(-254,-78) scale(1,1)"><rect fill="#C0C0C0" stroke="none" x="367" y="95" width="93.51904296875" height="32" opacity="0.2"/></g><g transform="translate(-254,-78) scale(1,1)"><rect fill="#ffffff" stroke="none" x="360" y="88" width="93.51904296875" height="32"/></g><g transform="translate(-254,-78) scale(1,1)"><path fill="none" stroke="#000000" d="M 360 88 L 453.51904296875 88 L 453.51904296875 120 L 360 120 L 360 88 Z Z" stroke-miterlimit="10"/></g><g transform="translate(-254,-78) scale(1,1)"><g><path fill="none" stroke="none"/><text fill="#000000" stroke="none" font-family="Arial" font-size="13px" font-style="normal" font-weight="bold" text-decoration="none" x="367.365966796875" y="105.5">learning page</text></g></g><g transform="translate(-254,-78) scale(1,1)"><rect fill="#C0C0C0" stroke="none" x="359" y="183" width="107.97265625" height="32" opacity="0.2"/></g><g transform="translate(-254,-78) scale(1,1)"><rect fill="#ffffff" stroke="none" x="352" y="176" width="107.97265625" height="32"/></g><g transform="translate(-254,-78) scale(1,1)"><path fill="none" stroke="#000000" d="M 352 176 L 459.97265625 176 L 459.97265625 208 L 352 208 L 352 176 Z Z" stroke-miterlimit="10"/></g><g transform="translate(-254,-78) scale(1,1)"><g><path fill="none" stroke="none"/><text fill="#000000" stroke="none" font-family="Arial" font-size="13px" font-style="normal" font-weight="bold" text-decoration="none" x="360.825927734375" y="193.5">skill to be learnt</text></g></g><g transform="translate(-254,-78) scale(1,1)"><path fill="none" stroke="#000000" d="M 406 120 L 406 176" stroke-miterlimit="10"/></g><g transform="translate(-254,-78) scale(1,1)"><path fill="none" stroke="#000000" d="M 399 169 L 413 169" stroke-miterlimit="10"/></g><g transform="translate(-254,-78) scale(1,1)"><path fill="none" stroke="#000000" d="M 413 127 L 399 127" stroke-miterlimit="10"/></g><g transform="translate(-254,-78) scale(1,1)"><g><path fill="none" stroke="none"/><text fill="#000000" stroke="none" font-family="Arial" font-size="13px" font-style="normal" font-weight="normal" text-decoration="none" x="374" y="154">learner's activity</text></g></g><g transform="translate(-254,-78) scale(1,1)"><g><path fill="none" stroke="none"/><text fill="#000000" stroke="none" font-family="Arial" font-size="13px" font-style="normal" font-weight="normal" text-decoration="none" x="421" y="152"></text></g></g><g transform="translate(-254,-78) scale(1,1)"><g><path fill="none" stroke="none"/><text fill="#000000" stroke="none" font-family="Arial" font-size="13px" font-style="normal" font-weight="normal" text-decoration="none" x="421" y="157"></text></g></g><g transform="translate(-254,-78) scale(1,1)"><rect fill="#C0C0C0" stroke="none" x="271" y="263" width="74.0126953125" height="32" opacity="0.2"/></g><g transform="translate(-254,-78) scale(1,1)"><rect fill="#ffffff" stroke="none" x="264" y="256" width="74.0126953125" height="32"/></g><g transform="translate(-254,-78) scale(1,1)"><path fill="none" stroke="#000000" d="M 264 256 L 338.0126953125 256 L 338.0126953125 288 L 264 288 L 264 256 Z Z" stroke-miterlimit="10"/></g><g transform="translate(-254,-78) scale(1,1)"><g><path fill="none" stroke="none"/><text fill="#000000" stroke="none" font-family="Arial" font-size="13px" font-style="normal" font-weight="bold" text-decoration="none" x="271.023193359375" y="273.5">homework</text></g></g><g transform="translate(-254,-78) scale(1,1)"><path fill="none" stroke="#000000" d="M 384 208 L 384 248 M 384 248 A 8 8 0 0 1 376 256 L 338 256" stroke-miterlimit="10"/></g><g transform="translate(-254,-78) scale(1,1)"><path fill="none" stroke="#000000" d="M 345 249 L 345 263" stroke-miterlimit="10"/></g><g transform="translate(-254,-78) scale(1,1)"><path fill="none" stroke="#000000" d="M 391 215 L 377 215" stroke-miterlimit="10"/></g><g transform="translate(-254,-78) scale(1,1)"><g><path fill="none" stroke="none"/><text fill="#000000" stroke="none" font-family="Arial" font-size="13px" font-style="normal" font-weight="normal" text-decoration="none" x="356" y="278">self study</text></g></g><g transform="translate(-254,-78) scale(1,1)"><g><path fill="none" stroke="none"/><text fill="#000000" stroke="none" font-family="Arial" font-size="13px" font-style="normal" font-weight="normal" text-decoration="none" x="399" y="240"></text></g></g><g transform="translate(-254,-78) scale(1,1)"><g><path fill="none" stroke="none"/><text fill="#000000" stroke="none" font-family="Arial" font-size="13px" font-style="normal" font-weight="normal" text-decoration="none" x="363" y="277"></text></g></g><g transform="translate(-254,-78) scale(1,1)"><rect fill="#C0C0C0" stroke="none" x="439" y="319" width="63.16455078125" height="32" opacity="0.2"/></g><g transform="translate(-254,-78) scale(1,1)"><rect fill="#ffffff" stroke="none" x="432" y="312" width="63.16455078125" height="32"/></g><g transform="translate(-254,-78) scale(1,1)"><path fill="none" stroke="#000000" d="M 432 312 L 495.16455078125 312 L 495.16455078125 344 L 432 344 L 432 312 Z Z" stroke-miterlimit="10"/></g><g transform="translate(-254,-78) scale(1,1)"><g><path fill="none" stroke="none"/><text fill="#000000" stroke="none" font-family="Arial" font-size="13px" font-style="normal" font-weight="bold" text-decoration="none" x="439.00732421875" y="329.5">question</text></g></g><g transform="translate(-254,-78) scale(1,1)"><path fill="none" stroke="#000000" d="M 338 288 L 338 309 M 338 309 A 8 8 0 0 0 346 317 L 432 317" stroke-miterlimit="10"/></g><g transform="translate(-254,-78) scale(1,1)"><path fill="none" stroke="#000000" d="M 418 317 L 432 324" stroke-miterlimit="10"/></g><g transform="translate(-254,-78) scale(1,1)"><path fill="none" stroke="#000000" d="M 418 317 L 432 310" stroke-miterlimit="10"/></g><g transform="translate(-254,-78) scale(1,1)"><path fill="#FFFFFF" stroke="none" d="M 403 317 C 403 313.1340064 406.1340064 310 410 310 C 413.8659936 310 417 313.1340064 417 317 C 417 320.8659936 413.8659936 324 410 324 C 406.1340064 324 403 320.8659936 403 317 Z"/></g><g transform="translate(-254,-78) scale(1,1)"><path fill="none" stroke="#000000" d="M 403 317 C 403 313.1340064 406.1340064 310 410 310 C 413.8659936 310 417 313.1340064 417 317 C 417 320.8659936 413.8659936 324 410 324 C 406.1340064 324 403 320.8659936 403 317 Z" stroke-miterlimit="10"/></g><g transform="translate(-254,-78) scale(1,1)"><path fill="none" stroke="#000000" d="M 345 295 L 331 295" stroke-miterlimit="10"/></g><g transform="translate(-254,-78) scale(1,1)"><g><path fill="none" stroke="none"/><text fill="#000000" stroke="none" font-family="Arial" font-size="13px" font-style="normal" font-weight="normal" text-decoration="none" x="290" y="309">need mentorship</text></g></g><g transform="translate(-254,-78) scale(1,1)"><g><path fill="none" stroke="none"/><text fill="#000000" stroke="none" font-family="Arial" font-size="13px" font-style="normal" font-weight="normal" text-decoration="none" x="353" y="320"></text></g></g><g transform="translate(-254,-78) scale(1,1)"><g><path fill="none" stroke="none"/><text fill="#000000" stroke="none" font-family="Arial" font-size="13px" font-style="normal" font-weight="normal" text-decoration="none" x="406" y="309"></text></g></g><g transform="translate(-254,-78) scale(1,1)"><rect fill="#C0C0C0" stroke="none" x="591" y="319" width="85.5654296875" height="32" opacity="0.2"/></g><g transform="translate(-254,-78) scale(1,1)"><rect fill="#ffffff" stroke="none" x="584" y="312" width="85.5654296875" height="32"/></g><g transform="translate(-254,-78) scale(1,1)"><path fill="none" stroke="#000000" d="M 584 312 L 669.5654296875 312 L 669.5654296875 344 L 584 344 L 584 312 Z Z" stroke-miterlimit="10"/></g><g transform="translate(-254,-78) scale(1,1)"><g><path fill="none" stroke="none"/><text fill="#000000" stroke="none" font-family="Arial" font-size="13px" font-style="normal" font-weight="bold" text-decoration="none" x="592.0927734375" y="329.5">suggestions</text></g></g><g transform="translate(-254,-78) scale(1,1)"><path fill="none" stroke="#000000" d="M 495 328 L 584 328" stroke-miterlimit="10"/></g><g transform="translate(-254,-78) scale(1,1)"><path fill="none" stroke="#000000" d="M 570 328 L 584 335" stroke-miterlimit="10"/></g><g transform="translate(-254,-78) scale(1,1)"><path fill="none" stroke="#000000" d="M 570 328 L 584 321" stroke-miterlimit="10"/></g><g transform="translate(-254,-78) scale(1,1)"><path fill="#FFFFFF" stroke="none" d="M 555 328 C 555 324.1340064 558.1340064 321 562 321 C 565.8659936 321 569 324.1340064 569 328 C 569 331.8659936 565.8659936 335 562 335 C 558.1340064 335 555 331.8659936 555 328 Z"/></g><g transform="translate(-254,-78) scale(1,1)"><path fill="none" stroke="#000000" d="M 555 328 C 555 324.1340064 558.1340064 321 562 321 C 565.8659936 321 569 324.1340064 569 328 C 569 331.8659936 565.8659936 335 562 335 C 558.1340064 335 555 331.8659936 555 328 Z" stroke-miterlimit="10"/></g><g transform="translate(-254,-78) scale(1,1)"><path fill="none" stroke="#000000" d="M 509 328 L 495 321" stroke-miterlimit="10"/></g><g transform="translate(-254,-78) scale(1,1)"><path fill="none" stroke="#000000" d="M 509 328 L 495 335" stroke-miterlimit="10"/></g><g transform="translate(-254,-78) scale(1,1)"><path fill="#FFFFFF" stroke="none" d="M 510 328 C 510 324.1340064 513.1340064 321 517 321 C 520.8659936 321 524 324.1340064 524 328 C 524 331.8659936 520.8659936 335 517 335 C 513.1340064 335 510 331.8659936 510 328 Z"/></g><g transform="translate(-254,-78) scale(1,1)"><path fill="none" stroke="#000000" d="M 510 328 C 510 324.1340064 513.1340064 321 517 321 C 520.8659936 321 524 324.1340064 524 328 C 524 331.8659936 520.8659936 335 517 335 C 513.1340064 335 510 331.8659936 510 328 Z" stroke-miterlimit="10"/></g><g transform="translate(-254,-78) scale(1,1)"><g><path fill="none" stroke="none"/><text fill="#000000" stroke="none" font-family="Arial" font-size="13px" font-style="normal" font-weight="normal" text-decoration="none" x="512" y="320">mentored</text></g></g><g transform="translate(-254,-78) scale(1,1)"><g><path fill="none" stroke="none"/><text fill="#000000" stroke="none" font-family="Arial" font-size="13px" font-style="normal" font-weight="normal" text-decoration="none" x="520" y="320"></text></g></g><g transform="translate(-254,-78) scale(1,1)"><g><path fill="none" stroke="none"/><text fill="#000000" stroke="none" font-family="Arial" font-size="13px" font-style="normal" font-weight="normal" text-decoration="none" x="558" y="320"></text></g></g><g transform="translate(-254,-78) scale(1,1)"><rect fill="#C0C0C0" stroke="none" x="447" y="407" width="52.341796875" height="32" opacity="0.2"/></g><g transform="translate(-254,-78) scale(1,1)"><rect fill="#ffffff" stroke="none" x="440" y="400" width="52.341796875" height="32"/></g><g transform="translate(-254,-78) scale(1,1)"><path fill="none" stroke="#000000" d="M 440 400 L 492.341796875 400 L 492.341796875 432 L 440 432 L 440 400 Z Z" stroke-miterlimit="10"/></g><g transform="translate(-254,-78) scale(1,1)"><g><path fill="none" stroke="none"/><text fill="#000000" stroke="none" font-family="Arial" font-size="13px" font-style="normal" font-weight="bold" text-decoration="none" x="453.161376953125" y="417.5">Blog</text></g></g><g transform="translate(-254,-78) scale(1,1)"><path fill="none" stroke="#000000" d="M 464 344 L 464 400" stroke-miterlimit="10"/></g><g transform="translate(-254,-78) scale(1,1)"><path fill="none" stroke="#000000" d="M 464 386 L 457 400" stroke-miterlimit="10"/></g><g transform="translate(-254,-78) scale(1,1)"><path fill="none" stroke="#000000" d="M 464 386 L 471 400" stroke-miterlimit="10"/></g><g transform="translate(-254,-78) scale(1,1)"><path fill="#FFFFFF" stroke="none" d="M 457 378 C 457 374.1340064 460.1340064 371 464 371 C 467.8659936 371 471 374.1340064 471 378 C 471 381.8659936 467.8659936 385 464 385 C 460.1340064 385 457 381.8659936 457 378 Z"/></g><g transform="translate(-254,-78) scale(1,1)"><path fill="none" stroke="#000000" d="M 457 378 C 457 374.1340064 460.1340064 371 464 371 C 467.8659936 371 471 374.1340064 471 378 C 471 381.8659936 467.8659936 385 464 385 C 460.1340064 385 457 381.8659936 457 378 Z" stroke-miterlimit="10"/></g><g transform="translate(-254,-78) scale(1,1)"><path fill="none" stroke="#000000" d="M 464 358 L 471 344" stroke-miterlimit="10"/></g><g transform="translate(-254,-78) scale(1,1)"><path fill="none" stroke="#000000" d="M 464 358 L 457 344" stroke-miterlimit="10"/></g><g transform="translate(-254,-78) scale(1,1)"><path fill="#FFFFFF" stroke="none" d="M 457 366 C 457 362.1340064 460.1340064 359 464 359 C 467.8659936 359 471 362.1340064 471 366 C 471 369.8659936 467.8659936 373 464 373 C 460.1340064 373 457 369.8659936 457 366 Z"/></g><g transform="translate(-254,-78) scale(1,1)"><path fill="none" stroke="#000000" d="M 457 366 C 457 362.1340064 460.1340064 359 464 359 C 467.8659936 359 471 362.1340064 471 366 C 471 369.8659936 467.8659936 373 464 373 C 460.1340064 373 457 369.8659936 457 366 Z" stroke-miterlimit="10"/></g><g transform="translate(-254,-78) scale(1,1)"><g><path fill="none" stroke="none"/><text fill="#000000" stroke="none" font-family="Arial" font-size="13px" font-style="normal" font-weight="normal" text-decoration="none" x="478" y="381">consolidated material</text></g></g><g transform="translate(-254,-78) scale(1,1)"><g><path fill="none" stroke="none"/><text fill="#000000" stroke="none" font-family="Arial" font-size="13px" font-style="normal" font-weight="normal" text-decoration="none" x="479" y="376"></text></g></g><g transform="translate(-254,-78) scale(1,1)"><g><path fill="none" stroke="none"/><text fill="#000000" stroke="none" font-family="Arial" font-size="13px" font-style="normal" font-weight="normal" text-decoration="none" x="479" y="381"></text></g></g></g></svg>