<svg version="1.1" xmlns="http://www.w3.org/2000/svg" xmlns:xlink="http://www.w3.org/1999/xlink" width="272.3271484375" height="340"><defs/><g><g transform="translate(-277,-30) scale(1,1)"><rect fill="#C0C0C0" stroke="none" x="351" y="79" width="102.17724609375" height="32" opacity="0.2"/></g><g transform="translate(-277,-30) scale(1,1)"><rect fill="#ffffff" stroke="none" x="344" y="72" width="102.17724609375" height="32"/></g><g transform="translate(-277,-30) scale(1,1)"><path fill="none" stroke="#000000" d="M 344 72 L 446.17724609375 72 L 446.17724609375 104 L 344 104 L 344 72 Z Z" stroke-miterlimit="10"/></g><g transform="translate(-277,-30) scale(1,1)"><g><path fill="none" stroke="none"/><text fill="#000000" stroke="none" font-family="Arial" font-size="13px" font-style="normal" font-weight="bold" text-decoration="none" x="351.36279296875" y="89.5">Knowledge Set</text></g></g><g transform="translate(-277,-30) scale(1,1)"><rect fill="#C0C0C0" stroke="none" x="351" y="183" width="97.83544921875" height="32" opacity="0.2"/></g><g transform="translate(-277,-30) scale(1,1)"><rect fill="#ffffff" stroke="none" x="344" y="176" width="97.83544921875" height="32"/></g><g transform="translate(-277,-30) scale(1,1)"><path fill="none" stroke="#000000" d="M 344 176 L 441.83544921875 176 L 441.83544921875 208 L 344 208 L 344 176 Z Z" stroke-miterlimit="10"/></g><g transform="translate(-277,-30) scale(1,1)"><g><path fill="none" stroke="none"/><text fill="#000000" stroke="none" font-family="Arial" font-size="13px" font-style="normal" font-weight="bold" text-decoration="none" x="352.45458984375" y="193.5">Blog Collector</text></g></g><g transform="translate(-277,-30) scale(1,1)"><path fill="none" stroke="#000000" d="M 395 176 L 395 104" stroke-miterlimit="10"/></g><g transform="translate(-277,-30) scale(1,1)"><path fill="none" stroke="#000000" d="M 395 118 L 402 104" stroke-miterlimit="10"/></g><g transform="translate(-277,-30) scale(1,1)"><path fill="none" stroke="#000000" d="M 395 118 L 388 104" stroke-miterlimit="10"/></g><g transform="translate(-277,-30) scale(1,1)"><path fill="#FFFFFF" stroke="none" d="M 388 126 C 388 122.1340064 391.1340064 119 395 119 C 398.8659936 119 402 122.1340064 402 126 C 402 129.8659936 398.8659936 133 395 133 C 391.1340064 133 388 129.8659936 388 126 Z"/></g><g transform="translate(-277,-30) scale(1,1)"><path fill="none" stroke="#000000" d="M 388 126 C 388 122.1340064 391.1340064 119 395 119 C 398.8659936 119 402 122.1340064 402 126 C 402 129.8659936 398.8659936 133 395 133 C 391.1340064 133 388 129.8659936 388 126 Z" stroke-miterlimit="10"/></g><g transform="translate(-277,-30) scale(1,1)"><path fill="none" stroke="#000000" d="M 388 169 L 402 169" stroke-miterlimit="10"/></g><g transform="translate(-277,-30) scale(1,1)"><g><path fill="none" stroke="none"/><text fill="#000000" stroke="none" font-family="Arial" font-size="13px" font-style="normal" font-weight="normal" text-decoration="none" x="370" y="146">use</text></g></g><g transform="translate(-277,-30) scale(1,1)"><g><path fill="none" stroke="none"/><text fill="#000000" stroke="none" font-family="Arial" font-size="13px" font-style="normal" font-weight="normal" text-decoration="none" x="380" y="157"></text></g></g><g transform="translate(-277,-30) scale(1,1)"><g><path fill="none" stroke="none"/><text fill="#000000" stroke="none" font-family="Arial" font-size="13px" font-style="normal" font-weight="normal" text-decoration="none" x="380" y="136"></text></g></g><g transform="translate(-277,-30) scale(1,1)"><path fill="#ffffff" stroke="none" d="M 456 40 L 528.3271484375 40 L 538.3271484375 50 L 538.3271484375 271 L 456 271 L 456 40"/></g><g transform="translate(-277,-30) scale(1,1)"><path fill="none" stroke="#000000" d="M 456 40 L 528.3271484375 40 L 538.3271484375 50 L 538.3271484375 271 L 456 271 L 456 40 L 456 40" stroke-miterlimit="10"/></g><g transform="translate(-277,-30) scale(1,1)"><path fill="none" stroke="#000000" d="M 528.3271484375 40 L 528.3271484375 50 L 538.3271484375 50 L 528.3271484375 40" stroke-miterlimit="10"/></g><g transform="translate(-277,-30) scale(1,1)"><g><path fill="none" stroke="none"/><text fill="#000000" stroke="none" font-family="Arial" font-size="13px" font-style="normal" font-weight="normal" text-decoration="none" x="461" y="58">The blog</text><text fill="#000000" stroke="none" font-family="Arial" font-size="13px" font-style="normal" font-weight="normal" text-decoration="none" x="461" y="71">collector</text><text fill="#000000" stroke="none" font-family="Arial" font-size="13px" font-style="normal" font-weight="normal" text-decoration="none" x="461" y="84">runs</text><text fill="#000000" stroke="none" font-family="Arial" font-size="13px" font-style="normal" font-weight="normal" text-decoration="none" x="461" y="97">analytics on</text><text fill="#000000" stroke="none" font-family="Arial" font-size="13px" font-style="normal" font-weight="normal" text-decoration="none" x="461" y="110">the</text><text fill="#000000" stroke="none" font-family="Arial" font-size="13px" font-style="normal" font-weight="normal" text-decoration="none" x="461" y="123">Knowledge</text><text fill="#000000" stroke="none" font-family="Arial" font-size="13px" font-style="normal" font-weight="normal" text-decoration="none" x="461" y="136">set and</text><text fill="#000000" stroke="none" font-family="Arial" font-size="13px" font-style="normal" font-weight="normal" text-decoration="none" x="461" y="149">collects</text><text fill="#000000" stroke="none" font-family="Arial" font-size="13px" font-style="normal" font-weight="normal" text-decoration="none" x="461" y="162">blogs off the</text><text fill="#000000" stroke="none" font-family="Arial" font-size="13px" font-style="normal" font-weight="normal" text-decoration="none" x="461" y="175">internet.</text><text fill="#000000" stroke="none" font-family="Arial" font-size="13px" font-style="normal" font-weight="normal" text-decoration="none" x="461" y="188">These blogs</text><text fill="#000000" stroke="none" font-family="Arial" font-size="13px" font-style="normal" font-weight="normal" text-decoration="none" x="461" y="201">are intended</text><text fill="#000000" stroke="none" font-family="Arial" font-size="13px" font-style="normal" font-weight="normal" text-decoration="none" x="461" y="214">to inspire</text><text fill="#000000" stroke="none" font-family="Arial" font-size="13px" font-style="normal" font-weight="normal" text-decoration="none" x="461" y="227">the learner</text><text fill="#000000" stroke="none" font-family="Arial" font-size="13px" font-style="normal" font-weight="normal" text-decoration="none" x="461" y="240">further</text></g></g><g transform="translate(-277,-30) scale(1,1)"><rect fill="#C0C0C0" stroke="none" x="367" y="335" width="79.8017578125" height="32" opacity="0.2"/></g><g transform="translate(-277,-30) scale(1,1)"><rect fill="#ffffff" stroke="none" x="360" y="328" width="79.8017578125" height="32"/></g><g transform="translate(-277,-30) scale(1,1)"><path fill="none" stroke="#000000" d="M 360 328 L 439.8017578125 328 L 439.8017578125 360 L 360 360 L 360 328 Z Z" stroke-miterlimit="10"/></g><g transform="translate(-277,-30) scale(1,1)"><g><path fill="none" stroke="none"/><text fill="#000000" stroke="none" font-family="Arial" font-size="13px" font-style="normal" font-weight="bold" text-decoration="none" x="365.575927734375" y="345.5">Home Page</text></g></g><g transform="translate(-277,-30) scale(1,1)"><path fill="none" stroke="#000000" d="M 393 208 L 393 328" stroke-miterlimit="10"/></g><g transform="translate(-277,-30) scale(1,1)"><path fill="none" stroke="#000000" d="M 386 321 L 400 321" stroke-miterlimit="10"/></g><g transform="translate(-277,-30) scale(1,1)"><path fill="none" stroke="#000000" d="M 400 215 L 386 215" stroke-miterlimit="10"/></g><g transform="translate(-277,-30) scale(1,1)"><g><path fill="none" stroke="none"/><text fill="#000000" stroke="none" font-family="Arial" font-size="13px" font-style="normal" font-weight="normal" text-decoration="none" x="287" y="292">Personal Home</text></g></g><g transform="translate(-277,-30) scale(1,1)"><g><path fill="none" stroke="none"/><text fill="#000000" stroke="none" font-family="Arial" font-size="13px" font-style="normal" font-weight="normal" text-decoration="none" x="408" y="240"></text></g></g><g transform="translate(-277,-30) scale(1,1)"><g><path fill="none" stroke="none"/><text fill="#000000" stroke="none" font-family="Arial" font-size="13px" font-style="normal" font-weight="normal" text-decoration="none" x="408" y="309"></text></g></g></g></svg>